<svg xmlns:xlink="http://www.w3.org/1999/xlink" xmlns="http://www.w3.org/2000/svg" xml:space="preserve" id="Layer_1" x="0" y="0" version="1.1" viewBox="0 0 221 32" width="221"  height="32" ><style>.st1{fill:#77797b}</style><path d="M77.3 26.6h3.4v-7.3c0-1.7.8-4 3.4-4 1.8 0 2.5.8 2.5 2.8v8.5H90v-9.5c0-4.1-2.8-5.2-5.2-5.2-1.9 0-3.3.8-4.1 1.8h-.1V5.9h-3.4v20.7zm-1-10.6c-.9-2.1-2.6-4.1-6-4.1-4.6 0-7.3 3.2-7.3 7.5s2.7 7.5 7.1 7.5c3.9 0 5.5-2.3 6.5-4.4L73.5 21c-.5 1.3-1.4 2.8-3.5 2.8-2.4 0-3.5-2.1-3.5-4.3s1.2-4.3 3.7-4.3c1.4 0 2.6.9 3 2.3zm-25.1 1.6c.4-1.5 1.7-2.8 3.7-2.8 2.3 0 3.2 2.1 3.2 2.8zm10.6 2.6c0-5.1-2.1-8.3-6.9-8.3-4.6 0-7.3 3.2-7.3 7.5s2.7 7.5 7.3 7.5c3.9 0 6-1.9 7-3.5L59 21.7c-.3.5-1.4 2-4.1 2-1.9 0-3.6-1.4-3.7-3.5zm-20.9-11v14.1c0 2.2 1 3.4 3.8 3.4 1.1 0 1.9-.2 2.7-.3v-2.8c-.5.1-1 .2-1.5.2-1.3 0-1.6-.6-1.6-1.8v-7.2h3.1v-2.5h-3.1V5.7zm-5.8 17.4h3.4V5.9h-3.4zm-5.9-5.1c0 1.8-2.1 2.6-3.7 2.6-1.2 0-2.2-.7-2.2-1.8 0-1.4 1.1-1.7 2.4-2l1.9-.4c.6-.1 1.2-.3 1.6-.5zm3.4-4.9c0-4.1-3.1-4.7-6.2-4.7s-6.1 1.3-6.1 4.7l3.4.1c0-1.6.6-2.1 2.7-2.1 1.5 0 2.7.4 2.7 1.8v.4c-.9.3-2.5.6-3.7.8L24 18c-2.1.4-4.3 1.7-4.3 4.5s2.1 4.5 4.9 4.5c1.8 0 3.3-.6 4.7-1.6 0 .4.1 1 .3 1.3h3.6c-.2-.3-.5-.9-.5-2.4v-7.7zm-13.4-4.3c-1-4.2-4-6.3-8.1-6.3-6 0-9.5 4.9-9.5 10.6s3.1 10.6 9.5 10.6c4 0 6.7-1.9 8.3-6L16 19.6c-.7 2.3-2.2 4.1-4.9 4.1-4 0-5.7-3.6-5.7-7.1s1.7-7.1 5.7-7.1c2.3 0 4.1 1.5 4.4 3.8z" style="fill:#f26d24"/><path d="M106.9 7.5c-.2-.3-.4-.5-.6-.7s-.5-.3-.8-.4-.6-.1-.9-.1q-.9 0-1.5.3c-.4.2-.7.5-1 .9q-.45.6-.6 1.2c-.1.4-.2.9-.2 1.4s.1.9.2 1.4q.15.75.6 1.2c.3.4.6.6 1 .9q.6.3 1.5.3c.4 0 .8-.1 1.1-.2s.6-.3.8-.6q.3-.3.6-.9c.1-.3.2-.7.3-1.1h.8c-.1.5-.2 1-.4 1.4s-.4.8-.7 1.1-.7.5-1.1.7-.9.2-1.4.2c-.7 0-1.3-.1-1.8-.4-.5-.2-.9-.6-1.3-1-.3-.4-.6-.9-.8-1.4s-.3-1.1-.3-1.7.1-1.2.3-1.7.4-1 .8-1.4c.3-.4.8-.7 1.3-1 .5-.2 1.1-.4 1.8-.4.4 0 .8.1 1.2.2s.7.3 1.1.5c.3.2.6.5.8.9.2.3.3.7.4 1.2h-.8c-.1-.2-.2-.5-.4-.8M109.7 12.3c.1.3.2.6.4.8l.6.6c.3.2.6.2.9.2.5 0 1-.1 1.3-.4s.5-.7.6-1.1h.8c-.2.7-.5 1.2-.9 1.6q-.6.6-1.8.6c-.5 0-.9-.1-1.3-.3s-.6-.4-.9-.7c-.2-.3-.4-.6-.5-1s-.2-.8-.2-1.2.1-.8.2-1.2.3-.7.5-1 .5-.6.9-.7c.4-.2.8-.3 1.3-.3s.9.1 1.3.3.6.5.9.8c.2.3.4.7.5 1.1s.1.8.1 1.3h-4.7c-.1.1 0 .3 0 .6m3.8-2.3c-.1-.3-.2-.5-.4-.7s-.4-.4-.6-.5-.5-.2-.8-.2-.6.1-.8.2-.4.3-.6.5-.3.4-.4.7-.2.5-.2.8h4c-.1-.2-.1-.5-.2-.8M116 8.2v1.1c.1-.4.4-.7.8-.9q.6-.3 1.2-.3c.4 0 .8.1 1.1.2s.5.3.7.5.3.5.4.7c.1.3.1.6.1 1v4h-.8v-3.8c0-.3 0-.5-.1-.7q0-.3-.3-.6c-.1-.2-.3-.3-.5-.4s-.5-.1-.8-.1-.6.1-.8.2-.4.3-.6.4c-.2.2-.3.4-.4.7s-.1.5-.1.8v3.6h-.8V8.2zM124 8.2v.6h-1.3V13c0 .2 0 .4.1.6.1.1.2.2.5.2h.6v.6h-.6c-.5 0-.9-.1-1.1-.3s-.3-.6-.3-1.1V8.8h-1.1v-.6h1.1V6.3h.8v1.9zM125.5 12.3c.1.3.2.6.4.8l.6.6c.3.2.6.2.9.2.6 0 1-.1 1.3-.4s.5-.7.6-1.1h.8c-.2.7-.5 1.2-.9 1.6q-.6.6-1.8.6c-.5 0-.9-.1-1.3-.3s-.6-.4-.9-.7c-.2-.3-.4-.6-.5-1s-.2-.8-.2-1.2.1-.8.2-1.2.3-.7.5-1 .5-.6.9-.7c.4-.2.8-.3 1.3-.3s.9.1 1.3.3.6.5.9.8c.2.3.4.7.5 1.1s.1.8.1 1.3h-4.7c-.1.1 0 .3 0 .6m3.8-2.3c-.1-.3-.2-.5-.4-.7s-.4-.4-.6-.5-.5-.2-.8-.2-.6.1-.8.2-.4.3-.6.5-.3.4-.4.7-.2.5-.2.8h4c-.1-.2-.1-.5-.2-.8M131.8 8.2v1.4q.3-.75.9-1.2c.4-.3.9-.4 1.4-.4v.8c-.3 0-.7 0-.9.1-.3.1-.5.3-.7.5s-.4.4-.5.7-.2.6-.2.9v3.3h-.8V8.2zM139.1 8.8v5.5h-.8V8.8h-1.1v-.6h1.1v-.6c0-.3 0-.5.1-.7 0-.2.1-.4.2-.6s.3-.3.5-.4.4-.1.7-.1h.6v.6h-.6c-.2 0-.4 0-.5.1s-.2.1-.2.3c-.1.1-.1.2-.1.4v1h1.2v.6zM144.8 8.3c.4.2.7.4.9.7s.4.6.6 1c.1.4.2.8.2 1.3 0 .4-.1.9-.2 1.3s-.3.7-.6 1c-.2.3-.6.5-.9.7q-.6.3-1.2.3-.75 0-1.2-.3c-.4-.2-.7-.4-.9-.7s-.4-.6-.6-1c-.1-.4-.2-.8-.2-1.3 0-.4.1-.9.2-1.3s.3-.7.6-1c.2-.3.6-.5.9-.7q.6-.3 1.2-.3t1.2.3m-2.2.6c-.3.2-.5.4-.7.6s-.3.5-.4.8-.1.6-.1 1c0 .3 0 .6.1 1 .1.3.2.6.4.8s.4.4.7.6.6.2.9.2c.4 0 .7-.1.9-.2.3-.2.5-.4.7-.6s.3-.5.4-.8.1-.6.1-1c0-.3 0-.6-.1-1-.1-.3-.2-.6-.4-.8s-.4-.4-.7-.6-.6-.2-.9-.2c-.4-.1-.7 0-.9.2M148.1 8.2v1.4q.3-.75.9-1.2c.4-.3.9-.4 1.4-.4v.8c-.3 0-.7 0-.9.1-.3.1-.5.3-.7.5s-.4.4-.5.7-.2.6-.2.9v3.3h-.8V8.2zM159.9 5.8v.7h-3v7.8h-.8V6.5h-3v-.7zM159.7 12.3c.1.3.2.6.4.8l.6.6c.3.2.6.2.9.2.6 0 1-.1 1.3-.4s.5-.7.6-1.1h.8c-.2.7-.5 1.2-.9 1.6s-1 .6-1.8.6c-.5 0-.9-.1-1.3-.3s-.6-.4-.9-.7c-.2-.3-.4-.6-.5-1s-.2-.8-.2-1.2.1-.8.2-1.2.3-.7.5-1 .5-.6.9-.7c.4-.2.8-.3 1.3-.3s.9.1 1.3.3.6.5.9.8c.2.3.4.7.5 1.1s.1.8.1 1.3h-4.7q-.15.15 0 .6m3.7-2.3c-.1-.3-.2-.5-.4-.7s-.4-.4-.6-.5-.5-.2-.8-.2-.6.1-.8.2-.4.3-.6.5-.3.4-.4.7-.2.5-.2.8h4c0-.2-.1-.5-.2-.8M169 9c-.3-.3-.7-.4-1.2-.4-.4 0-.7.1-.9.2-.3.2-.5.4-.7.6s-.3.5-.4.8-.1.6-.1 1c0 .3 0 .6.1 1 .1.3.2.6.4.8s.4.4.7.6.6.2.9.2c.2 0 .5 0 .7-.1s.4-.2.5-.4c.2-.2.3-.3.4-.6.1-.2.2-.5.2-.7h.8c-.1.7-.4 1.3-.8 1.8-.4.4-1 .6-1.7.6q-.75 0-1.2-.3c-.4-.2-.7-.4-.9-.7s-.4-.6-.6-1c-.1-.4-.2-.8-.2-1.3 0-.4.1-.9.2-1.3s.3-.7.6-1c.2-.3.6-.5.9-.7q.6-.3 1.2-.3c.7 0 1.2.2 1.7.5.5.4.7.9.8 1.6h-.8c-.1-.2-.3-.6-.6-.9M172.1 5.8v3.4c.1-.4.4-.7.8-.9q.6-.3 1.2-.3c.4 0 .8.1 1.1.2s.5.3.7.5.3.5.4.7c.1.3.1.6.1 1v4h-.8v-3.8c0-.3 0-.5-.1-.7q0-.3-.3-.6c-.1-.2-.3-.3-.5-.4s-.5-.1-.8-.1-.6.1-.8.2-.4.3-.6.4c-.2.2-.3.4-.4.7s-.1.5-.1.8v3.6h-.8V5.8zM178.4 8.2v1.1c.1-.4.4-.7.8-.9s.8-.3 1.2-.3.8.1 1.1.2.5.3.7.5.3.5.4.7c.1.3.1.6.1 1v4h-.8v-3.8c0-.3 0-.5-.1-.7q0-.3-.3-.6c-.1-.2-.3-.3-.5-.4s-.5-.1-.8-.1-.6.1-.8.2-.4.3-.6.4c-.2.2-.3.4-.4.7s-.1.5-.1.8v3.6h-.8V8.2zM187.8 8.3c.4.2.7.4.9.7s.4.6.6 1c.1.4.2.8.2 1.3 0 .4-.1.9-.2 1.3s-.3.7-.6 1c-.2.3-.6.5-.9.7q-.6.3-1.2.3-.75 0-1.2-.3c-.4-.2-.7-.4-.9-.7s-.4-.6-.6-1c-.1-.4-.2-.8-.2-1.3 0-.4.1-.9.2-1.3s.3-.7.6-1c.2-.3.6-.5.9-.7q.6-.3 1.2-.3t1.2.3m-2.2.6c-.3.2-.5.4-.7.6s-.3.5-.4.8-.1.6-.1 1c0 .3 0 .6.1 1 .1.3.2.6.4.8s.4.4.7.6.6.2.9.2c.4 0 .7-.1.9-.2.3-.2.5-.4.7-.6s.3-.5.4-.8.1-.6.1-1c0-.3 0-.6-.1-1-.1-.3-.2-.6-.4-.8s-.4-.4-.7-.6-.6-.2-.9-.2c-.3-.1-.7 0-.9.2M191.2 5.8v8.5h-.8V5.8zM196.4 8.3c.4.2.7.4.9.7s.4.6.6 1c.1.4.2.8.2 1.3 0 .4-.1.9-.2 1.3s-.3.7-.6 1c-.2.3-.6.5-.9.7q-.6.3-1.2.3-.75 0-1.2-.3c-.4-.2-.7-.4-.9-.7s-.4-.6-.6-1c-.1-.4-.2-.8-.2-1.3 0-.4.1-.9.2-1.3s.3-.7.6-1c.2-.3.6-.5.9-.7q.6-.3 1.2-.3t1.2.3m-2.2.6c-.3.2-.5.4-.7.6s-.3.5-.4.8-.1.6-.1 1c0 .3 0 .6.1 1 .1.3.2.6.4.8s.4.4.7.6.6.2.9.2c.4 0 .7-.1.9-.2.3-.2.5-.4.7-.6s.3-.5.4-.8.1-.6.1-1c0-.3 0-.6-.1-1-.1-.3-.2-.6-.4-.8s-.4-.4-.7-.6-.6-.2-.9-.2c-.3-.1-.6 0-.9.2M204.1 15.1c-.1.4-.3.7-.5.9-.2.3-.5.5-.8.6s-.8.2-1.3.2c-.3 0-.6 0-.9-.1s-.6-.2-.8-.3c-.2-.2-.4-.3-.6-.6-.2-.2-.2-.5-.3-.8h.8c0 .2.1.4.2.6s.3.3.4.4c.2.1.3.2.5.2s.4.1.6.1q1.05 0 1.5-.6c.3-.4.5-1 .5-1.7v-1c-.2.4-.4.7-.8.9q-.45.3-1.2.3c-.5 0-.9-.1-1.3-.2-.4-.2-.6-.4-.9-.7-.2-.3-.4-.6-.5-1s-.2-.8-.2-1.2.1-.8.2-1.2.3-.7.5-1 .5-.5.9-.7c.3-.2.7-.2 1.2-.2.2 0 .4 0 .7.1l.6.3c.2.1.3.2.4.4s.2.3.3.5V8.2h.8v5.7c.2.4.1.8 0 1.2m-1.7-1.7c.2-.1.5-.3.6-.5.2-.2.3-.5.4-.8s.1-.6.1-.9 0-.6-.1-.9-.2-.6-.3-.8l-.6-.6c-.3-.2-.6-.2-.9-.2s-.7.1-.9.2q-.45.15-.6.6c-.2.2-.3.5-.4.8s-.1.6-.1.9 0 .6.1.9.2.6.4.8.4.4.6.5c.3.1.6.2.9.2.3.1.5 0 .8-.2M205.7 8.2l2 5.3 1.9-5.3h.8l-2.7 7.1c-.1.3-.2.5-.3.7s-.2.3-.3.4-.3.2-.4.2c-.2 0-.4.1-.6.1h-.6000000000000001v-.6h.6c.2 0 .3 0 .4-.1.1 0 .2-.1.3-.2s.1-.2.2-.3.1-.3.2-.4l.3-.7-2.5-6.1h.7zM216.9 14.2c-.4.2-.9.3-1.4.3-.4 0-.7-.1-1-.2s-.6-.3-.8-.5-.4-.4-.5-.7-.2-.6-.2-1c0-.3.1-.6.2-.8.1-.3.3-.5.5-.7s.4-.4.7-.6c.2-.2.5-.3.7-.4-.1-.2-.2-.3-.4-.5-.1-.2-.2-.3-.3-.5s-.2-.3-.3-.5c-.1-.1-.1-.3-.1-.5 0-.3 0-.5.1-.7s.2-.4.4-.5c.2-.2.4-.3.6-.4s.5-.1.7-.1c.3 0 .5 0 .7.1s.4.2.6.4.3.3.4.5.1.4.1.7 0 .5-.1.7-.2.4-.4.6l-.5.5c-.2.1-.4.3-.6.4l1.9 2.2c.1-.2.2-.4.2-.6v-.8h.8c0 .2 0 .5-.1.9s-.2.8-.4 1.1l1.4 1.7h-.9l-.9-1.1c-.3.4-.7.8-1.1 1m-2.1-3.7c-.2.1-.4.3-.6.5s-.3.4-.4.6-.2.4-.2.7c0 .2.1.5.2.7s.2.4.4.5q.3.3.6.3c.2.1.5.1.7.1.4 0 .8-.1 1.2-.4q.45-.3.9-.9l-2.1-2.6c-.3.2-.5.3-.7.5m.3-3.8c-.2.2-.3.5-.3.8 0 .2 0 .3.1.5s.1.3.2.5c.1.1.2.3.3.4s.2.3.3.4c.2-.1.3-.2.5-.3s.3-.2.4-.4c.1-.1.2-.3.3-.5.1-.1.1-.3.1-.5 0-.4-.1-.6-.3-.8s-.5-.3-.8-.3-.6.1-.8.2M102.2 18.1l2.8 7.5 2.9-7.5h1.2v8.5h-.8v-7.4l-2.9 7.4h-.8l-2.8-7.4v7.4h-.8v-8.5zM110.7 21.4c.1-.3.3-.5.5-.6.2-.2.5-.3.8-.4s.6-.1 1-.1c.3 0 .5 0 .8.1s.5.1.7.3c.2.1.4.3.5.6s.2.6.2 1v3.3c0 .3.1.5.4.5h.2v.6h-.5c-.2 0-.3 0-.5-.1-.1-.1-.2-.1-.3-.2s-.1-.2-.1-.3v-.4c-.1.2-.3.4-.4.5-.1.2-.3.3-.5.4s-.4.2-.6.2c-.2.1-.5.1-.8.1s-.6 0-.8-.1c-.3-.1-.5-.2-.7-.3s-.3-.3-.4-.6c-.1-.2-.2-.5-.2-.8 0-.4.1-.8.3-1s.4-.4.8-.6c.3-.1.7-.2 1.1-.3s.8-.1 1.2-.1c.2 0 .3 0 .4-.1.1 0 .2-.1.3-.1l.2-.2c0-.1.1-.2.1-.4 0-.3 0-.5-.1-.6-.1-.2-.2-.3-.3-.4s-.3-.2-.5-.2-.4-.1-.6-.1q-.75 0-1.2.3c-.3.2-.5.6-.5 1.1h-.8c.1-.4.2-.7.3-1m3.8 1.9c0 .1-.1.2-.3.2-.1 0-.3.1-.4.1-.3.1-.6.1-1 .1-.3 0-.6.1-.9.2s-.5.2-.7.4-.3.4-.3.7c0 .2 0 .4.1.5s.2.3.3.4.3.2.4.2c.2.1.3.1.5.1.3 0 .6 0 .8-.1.3-.1.5-.2.7-.4s.4-.4.5-.6.2-.5.2-.8zM117.4 20.5v1.1c.1-.4.4-.7.8-.9q.6-.3 1.2-.3c.4 0 .8.1 1.1.2s.5.3.7.5.3.5.4.7.1.6.1 1v4h-.8V23c0-.3 0-.5-.1-.7q0-.3-.3-.6c-.1-.2-.3-.3-.5-.4s-.5-.1-.8-.1-.6.1-.8.2-.4.3-.6.4c-.2.2-.3.4-.4.7s-.1.5-.1.8v3.6h-.8v-6.2h.9zM123.1 21.4c.1-.3.3-.5.5-.6.2-.2.5-.3.8-.4s.6-.1 1-.1c.3 0 .5 0 .8.1s.5.1.7.3c.2.1.4.3.5.6s.2.6.2 1v3.3c0 .3.1.5.4.5h.2v.6h-.5c-.2 0-.3 0-.5-.1-.1-.1-.2-.1-.3-.2s-.1-.2-.1-.3v-.4c-.1.2-.3.4-.4.5-.1.2-.3.3-.5.4s-.4.2-.6.2c-.2.1-.5.1-.8.1s-.6 0-.8-.1c-.3-.1-.5-.2-.7-.3s-.3-.3-.4-.6c-.1-.2-.2-.5-.2-.8 0-.4.1-.8.3-1s.4-.4.8-.6c.3-.1.7-.2 1.1-.3s.8-.1 1.2-.1c.2 0 .3 0 .4-.1.1 0 .2-.1.3-.1l.2-.2c0-.1.1-.2.1-.4 0-.3 0-.5-.1-.6-.1-.2-.2-.3-.3-.4s-.3-.2-.5-.2-.4-.1-.6-.1q-.75 0-1.2.3c-.3.2-.5.6-.5 1.1h-.8c.1-.4.2-.7.3-1m3.8 1.9c0 .1-.1.2-.3.2-.1 0-.3.1-.4.1-.3.1-.6.1-1 .1-.3 0-.6.1-.9.2s-.5.2-.7.4-.3.4-.3.7c0 .2 0 .4.1.5s.2.3.3.4.3.2.4.2c.2.1.3.1.5.1.3 0 .6 0 .8-.1.3-.1.5-.2.7-.4s.4-.4.5-.6.2-.5.2-.8zM134.1 27.4c-.1.4-.3.7-.5.9-.2.3-.5.5-.8.6s-.8.2-1.3.2c-.3 0-.6 0-.9-.1s-.6-.2-.8-.3c-.2-.2-.4-.3-.6-.6-.2-.2-.2-.5-.3-.8h.8c0 .2.1.4.2.6s.3.3.4.4c.2.1.3.2.5.2s.4.1.6.1q1.05 0 1.5-.6c.3-.4.5-1 .5-1.7v-.8c-.2.4-.4.7-.8.9q-.45.3-1.2.3c-.5 0-.9-.1-1.3-.2-.4-.2-.6-.4-.9-.7-.2-.3-.4-.6-.5-1s-.2-.8-.2-1.2.1-.8.2-1.2.3-.7.5-1 .5-.5.9-.7c.3-.2.7-.2 1.2-.2.2 0 .4 0 .7.1l.6.3c.2.1.3.2.4.4s.2.3.3.5v-1.1h.8v5.7c.2.2.1.6 0 1m-1.7-1.7c.2-.1.5-.3.6-.5s.3-.5.4-.8.1-.6.1-.9 0-.6-.1-.9-.2-.6-.3-.8l-.6-.6c-.3-.2-.6-.2-.9-.2s-.7.1-.9.2q-.45.15-.6.6c-.2.2-.3.5-.4.8s-.1.6-.1.9 0 .6.1.9.2.6.4.8.4.4.6.5c.3.1.6.2.9.2.3.1.5 0 .8-.2M136.1 24.6c.1.3.2.6.4.8l.6.6c.3.2.6.2.9.2.5 0 1-.1 1.3-.4s.5-.7.6-1.1h.8c-.2.7-.5 1.2-.9 1.6s-1 .6-1.8.6c-.5 0-.9-.1-1.3-.3s-.6-.4-.9-.7c-.2-.3-.4-.6-.5-1s-.2-.8-.2-1.2.1-.8.2-1.2.3-.7.5-1 .5-.6.9-.7c.4-.2.8-.3 1.3-.3s.9.1 1.3.3.6.5.9.8c.2.3.4.7.5 1.1s.1.8.1 1.3H136s.1.3.1.6m3.8-2.3c-.1-.3-.2-.5-.4-.7s-.4-.4-.6-.5-.5-.2-.8-.2-.6.1-.8.2-.4.3-.6.5-.3.4-.4.7-.2.5-.2.8h4c-.1-.2-.1-.5-.2-.8M142.4 20.5v1c.2-.4.5-.7.8-.9q.45-.3 1.2-.3c.4 0 .8.1 1.1.3s.6.5.7.9c.2-.4.5-.7.8-.9.4-.2.7-.3 1.1-.3 1.4 0 2 .7 2 2.2v4.2h-.8v-4.1q0-.75-.3-1.2c-.2-.3-.6-.4-1.1-.4-.3 0-.6.1-.8.2s-.4.3-.5.5-.2.4-.3.7-.1.5-.1.8v3.5h-.8v-4.2c0-.2 0-.4-.1-.6 0-.2-.1-.4-.2-.5s-.2-.2-.4-.3-.4-.1-.6-.1c-.3 0-.6.1-.8.2s-.4.3-.6.5c-.1.2-.3.4-.3.7-.1.3-.1.6-.1.9v3.4h-.8v-6.2zM152.1 24.6c.1.3.2.6.4.8l.6.6c.3.2.6.2.9.2.6 0 1-.1 1.3-.4s.5-.7.6-1.1h.8c-.2.7-.5 1.2-.9 1.6s-1 .6-1.8.6c-.5 0-.9-.1-1.3-.3s-.6-.4-.9-.7c-.2-.3-.4-.6-.5-1s-.2-.8-.2-1.2.1-.8.2-1.2.3-.7.5-1 .5-.6.9-.7c.4-.2.8-.3 1.3-.3s.9.1 1.3.3.6.5.9.8c.2.3.4.7.5 1.1s.1.8.1 1.3h-4.7c-.2 0-.1.3 0 .6m3.7-2.3c-.1-.3-.2-.5-.4-.7s-.4-.4-.6-.5-.5-.2-.8-.2-.6.1-.8.2-.4.3-.6.5-.3.4-.4.7-.2.5-.2.8h4c-.1-.2-.1-.5-.2-.8M158.3 20.5v1.1c.1-.4.4-.7.8-.9s.8-.3 1.2-.3.8.1 1.1.2.5.3.7.5.3.5.4.7c.1.3.1.6.1 1v4h-.8V23c0-.3 0-.5-.1-.7q0-.3-.3-.6c-.1-.2-.3-.3-.5-.4s-.5-.1-.8-.1-.6.1-.8.2-.4.3-.6.4c-.2.2-.3.4-.4.7s-.1.5-.1.8v3.6h-.8v-6.2h.9zM166.3 20.5v.6H165v4.2c0 .2 0 .4.1.6.1.1.2.2.5.2h.6v.6h-.6c-.5 0-.9-.1-1.1-.3s-.3-.6-.3-1.1v-4.2h-1.1v-.6h1.1v-1.9h.8v1.9zM176.6 18.1v.7h-5.1v3.1h4.8v.7h-4.8V26h5.1v.7h-6v-8.5h6zM182.2 26.7v-1.2c-.1.2-.2.4-.4.6s-.3.3-.5.4l-.6.3c-.2.1-.5.1-.7.1q-.75 0-1.2-.3c-.3-.2-.6-.4-.9-.7-.2-.3-.4-.6-.5-1s-.2-.8-.2-1.2.1-.9.2-1.2c.1-.4.3-.7.5-1s.5-.5.9-.7c.3-.2.8-.3 1.2-.3.2 0 .5 0 .7.1s.4.1.6.3c.2.1.4.3.5.4.1.2.3.4.3.6v-3.5h.8v8.5h-.7zm-4.1-2.2c.1.3.2.6.4.8l.6.6c.3.2.6.2.9.2.4 0 .7-.1 1-.2.3-.2.5-.4.7-.6s.3-.5.4-.8.1-.6.1-1c0-.3 0-.6-.1-1-.1-.3-.2-.6-.4-.8s-.4-.4-.7-.6-.6-.2-1-.2-.7.1-.9.2q-.45.3-.6.6c-.2.2-.3.5-.4.8s-.1.6-.1 1 0 .7.1 1M188.5 26.7v-1.1c-.2.4-.5.7-.9 1-.4.2-.8.3-1.3.3-.4 0-.7-.1-1-.2s-.5-.3-.7-.5-.3-.4-.4-.7-.1-.6-.1-1v-4h.8v4c0 .6.1 1 .4 1.3.2.3.7.4 1.3.4.3 0 .6-.1.8-.2q.3-.15.6-.6c.2-.2.3-.5.3-.8s.1-.6.1-.9v-3.2h.8v6.2zM194.3 21.3c-.3-.3-.7-.4-1.2-.4-.4 0-.7.1-.9.2-.3.2-.5.4-.7.6s-.3.5-.4.8-.1.6-.1 1c0 .3 0 .6.1 1 .1.3.2.6.4.8s.4.4.7.6.6.2.9.2c.2 0 .5 0 .7-.1s.4-.2.5-.4c.2-.2.3-.3.4-.6.1-.2.2-.5.2-.7h.8c-.1.7-.4 1.3-.8 1.8-.4.4-1 .6-1.7.6q-.75 0-1.2-.3c-.4-.2-.7-.4-.9-.7s-.4-.6-.6-1c-.1-.4-.2-.8-.2-1.3s.1-.9.2-1.3.3-.7.6-1c.2-.3.6-.5.9-.7q.6-.3 1.2-.3c.7 0 1.2.2 1.7.5.5.4.7.9.8 1.6h-.8c-.1-.2-.3-.6-.6-.9M196.8 21.4c.1-.3.3-.5.5-.6.2-.2.5-.3.8-.4s.6-.1 1-.1c.3 0 .5 0 .8.1s.5.1.7.3c.2.1.4.3.5.6s.2.6.2 1v3.3c0 .3.1.5.4.5h.2v.6h-.5c-.2 0-.3 0-.5-.1-.1-.1-.2-.1-.3-.2s-.1-.2-.1-.3v-.4c-.1.2-.3.4-.4.5-.1.2-.3.3-.5.4s-.4.2-.6.2c-.2.1-.5.1-.8.1s-.6 0-.8-.1c-.3-.1-.5-.2-.7-.3s-.3-.3-.4-.6c-.1-.2-.2-.5-.2-.8 0-.4.1-.8.3-1s.4-.4.8-.6c.3-.1.7-.2 1.1-.3s.8-.1 1.2-.1c.2 0 .3 0 .4-.1.1 0 .2-.1.3-.1l.2-.2c0-.1.1-.2.1-.4 0-.3 0-.5-.1-.6-.1-.2-.2-.3-.3-.4s-.3-.2-.5-.2-.4-.1-.6-.1q-.75 0-1.2.3c-.3.2-.5.6-.5 1.1h-.8c.1-.4.1-.7.3-1m3.7 1.9c0 .1-.1.2-.3.2-.1 0-.3.1-.4.1-.3.1-.6.1-1 .1-.3 0-.6.1-.9.2s-.5.2-.7.4-.3.4-.3.7c0 .2 0 .4.1.5s.2.3.3.4.3.2.4.2c.2.1.3.1.5.1.3 0 .6 0 .8-.1.3-.1.5-.2.7-.4s.4-.4.5-.6.2-.5.2-.8zM205.2 20.5v.6h-1.3v4.2c0 .2 0 .4.1.6.1.1.2.2.5.2h.6v.6h-.6c-.5 0-.9-.1-1.1-.3s-.3-.6-.3-1.1v-4.2H202v-.6h1.1v-1.9h.8v1.9zM206.9 18.1v1.2h-.8v-1.2zm0 2.4v6.2h-.8v-6.2zM212.1 20.6c.4.2.7.4.9.7s.4.6.6 1c.1.4.2.8.2 1.3s-.1.9-.2 1.3-.3.7-.6 1c-.2.3-.6.5-.9.7q-.6.3-1.2.3-.75 0-1.2-.3c-.4-.2-.7-.4-.9-.7s-.4-.6-.6-1c-.1-.4-.2-.8-.2-1.3s.1-.9.2-1.3.3-.7.6-1c.2-.3.6-.5.9-.7q.6-.3 1.2-.3t1.2.3m-2.2.6c-.3.2-.5.4-.7.6s-.3.5-.4.8-.1.6-.1 1c0 .3 0 .6.1 1 .1.3.2.6.4.8s.4.4.7.6.6.2.9.2c.4 0 .7-.1.9-.2.3-.2.5-.4.7-.6s.3-.5.4-.8.1-.6.1-1c0-.3 0-.6-.1-1-.1-.3-.2-.6-.4-.8s-.4-.4-.7-.6-.6-.2-.9-.2c-.3-.1-.7 0-.9.2M215.5 20.5v1.1c.1-.4.4-.7.8-.9s.8-.3 1.2-.3.8.1 1.1.2.5.3.7.5.3.5.4.7c.1.3.1.6.1 1v4h-.8V23c0-.3 0-.5-.1-.7q0-.3-.3-.6c-.1-.2-.3-.3-.5-.4s-.5-.1-.8-.1-.6.1-.8.2-.4.3-.6.4c-.2.2-.3.4-.4.7s-.1.5-.1.8v3.6h-.8v-6.2h.9z" class="st1"/><path d="M0 0h221v32H0z" style="fill:none"/></svg>