<svg xmlns:xlink="http://www.w3.org/1999/xlink" xmlns="http://www.w3.org/2000/svg" xml:space="preserve" id="Layer_1" width="67" height="40" x="0" y="0" version="1.1"><style>.st0{fill:#1f70c1}</style><path id="Rectangle-path" d="M2.5 31.5h12.1v1.8H2.5z" class="st0"/><path id="Rectangle-path_1_" d="M2.5 28.2h12.1V30H2.5z" class="st0"/><path id="Rectangle-path_2_" d="M6 24.9h5.2v1.8H6z" class="st0"/><path id="Rectangle-path_3_" d="M6 21.6h5.2v1.7H6z" class="st0"/><path id="Rectangle-path_4_" d="M6 18.3h5.2V20H6z" class="st0"/><path id="Rectangle-path_5_" d="M6 14.9h5.2v1.8H6z" class="st0"/><path id="Rectangle-path_6_" d="M2.5 11.6h12.1v1.8H2.5z" class="st0"/><path id="Rectangle-path_7_" d="M2.5 8.3h12.1v1.8H2.5z" class="st0"/><path id="Shape_16_" d="M16.4 30H35c.3-.5.5-1.1.7-1.8H16.4z" class="st0"/><path id="Shape_17_" d="M33.5 21.6H19.9v1.8H35c-.4-.8-.9-1.3-1.5-1.8" class="st0"/><path id="Shape_18_" d="M19.9 18.3v1.8h13.8q.9-.75 1.5-1.8z" class="st0"/><path id="Shape_19_" d="M35 11.6H16.4v1.8h19.3c-.2-.7-.4-1.3-.7-1.8" class="st0"/><path id="Shape_20_" d="M29.3 8.3H16.4v1.8h17.4C32.6 9 31 8.3 29.3 8.3" class="st0"/><path id="Rectangle-path_8_" d="M19.9 14.9h5.2v1.8h-5.2z" class="st0"/><path id="Shape_21_" d="M30.2 16.7h5.4c.1-.6.2-1.2.2-1.8h-5.7v1.8z" class="st0"/><path id="Rectangle-path_9_" d="M19.9 24.9H25v1.8h-5.1z" class="st0"/><path id="Shape_22_" d="M30.2 24.9v1.8h5.7c0-.6-.1-1.2-.2-1.8z" class="st0"/><path id="Shape_23_" d="M16.4 33.3h12.9c1.8 0 3.3-.7 4.5-1.8H16.4z" class="st0"/><path id="Rectangle-path_10_" d="M37.1 31.5h8.7v1.8h-8.7z" class="st0"/><path id="Rectangle-path_11_" d="M37.1 28.2h8.7V30h-8.7z" class="st0"/><path id="Rectangle-path_12_" d="M40.6 24.9h5.2v1.8h-5.2z" class="st0"/><path id="Rectangle-path_13_" d="M40.6 21.6h5.2v1.7h-5.2z" class="st0"/><path id="Shape_24_" d="M48.2 11.6H37.1v1.8h11.7z" class="st0"/><path id="Shape_25_" d="M47.1 8.3h-10v1.8h10.6z" class="st0"/><path id="Rectangle-path_14_" d="M56.2 31.5h8.7v1.8h-8.7z" class="st0"/><path id="Rectangle-path_15_" d="M56.2 28.2h8.7V30h-8.7z" class="st0"/><path id="Rectangle-path_16_" d="M56.2 24.9h5.2v1.8h-5.2z" class="st0"/><path id="Rectangle-path_17_" d="M56.2 21.6h5.2v1.7h-5.2z" class="st0"/><path id="Shape_26_" d="M56.2 20h5.2v-1.7h-9.9l-.5 1.4-.5-1.4h-9.9V20h5.2v-1.5l.5 1.5h9.4l.5-1.5z" class="st0"/><path id="Shape_27_" d="M61.4 14.9h-8.7l-.6 1.8h9.3z" class="st0"/><path id="Shape_28_" d="m54.9 8.3-.6 1.8h10.6V8.3z" class="st0"/><path id="Shape_29_" d="m51 33.3.6-1.8h-1.2z" class="st0"/><path id="Shape_30_" d="M49.9 30h2.2l.7-1.8h-3.5z" class="st0"/><path id="Shape_31_" d="M48.7 26.7h4.6l.6-1.8h-5.8z" class="st0"/><path id="Shape_32_" d="M47.5 23.3h7l.6-1.7h-8.2z" class="st0"/><path id="Shape_33_" d="M40.6 16.7h9.3l-.6-1.8h-8.7z" class="st0"/><path id="Shape_34_" d="M53.2 13.4h11.7v-1.8H53.8z" class="st0"/></svg>